<svg width="100" height="24" viewBox="0 0 100 24" fill="none" xmlns="http://www.w3.org/2000/svg">
<path d="M12.0656 0C13.9873 3.97341e-05 15.1343 2.14111 14.0697 3.74096L13.0905 5.21201L13.3106 5.54265C13.5209 5.85866 13.6554 6.05985 13.7664 6.20444C13.8751 6.34599 13.9166 6.37236 13.9181 6.37333C14.0702 6.47078 14.2609 6.48584 14.4263 6.4133C14.4281 6.41254 14.4733 6.39281 14.6025 6.27009C14.7347 6.1446 14.899 5.96686 15.156 5.68756L17.9902 2.60736C18.3094 2.2606 18.8493 2.23823 19.1961 2.55736C19.5429 2.87651 19.5653 3.41644 19.2461 3.76325L16.4119 6.84327C16.1708 7.10522 15.9614 7.33345 15.7776 7.50795C15.5911 7.68508 15.3779 7.85967 15.1118 7.97636C14.4235 8.27819 13.6299 8.21588 12.9971 7.81036C12.7525 7.65357 12.569 7.44788 12.4124 7.24381C12.3057 7.10486 12.1912 6.9385 12.0654 6.75125C11.9395 6.93876 11.8249 7.10538 11.7181 7.24449C11.5615 7.44859 11.378 7.65425 11.1334 7.81104C10.501 8.21629 9.70794 8.27883 9.01993 7.97755C8.75375 7.86099 8.54038 7.68654 8.35371 7.50948C8.16982 7.33505 7.96031 7.10682 7.71914 6.84497L4.75392 3.62565C4.43461 3.27897 4.4569 2.73907 4.80358 2.41976C5.15026 2.10046 5.69016 2.12258 6.00947 2.46926L8.97452 5.68875C9.2317 5.96798 9.39606 6.14568 9.5283 6.27111C9.65609 6.39232 9.70178 6.41278 9.70451 6.41398C9.86985 6.48638 10.0606 6.4714 10.2125 6.37401C10.2149 6.37249 10.2568 6.34526 10.3643 6.20529C10.4752 6.0607 10.6096 5.85937 10.8199 5.54333L11.0403 5.21184L10.0615 3.74096C8.99688 2.1411 10.1439 0 12.0656 0ZM12.0656 1.70695C11.5065 1.70695 11.1727 2.32981 11.4824 2.79531L12.0654 3.67157L12.6486 2.79531C12.9584 2.32982 12.6247 1.70699 12.0656 1.70695Z" fill="#66765B"/>
<path d="M11.9344 24C10.0127 24 8.8657 21.8589 9.93032 20.259L10.9095 18.788L10.6894 18.4574C10.4791 18.1413 10.3446 17.9401 10.2336 17.7956C10.1249 17.654 10.0834 17.6276 10.0819 17.6267C9.92981 17.5292 9.73906 17.5142 9.57366 17.5867C9.57192 17.5875 9.52671 17.6072 9.39745 17.7299C9.26528 17.8554 9.10102 18.0331 8.84401 18.3124L6.00975 21.3926C5.6906 21.7394 5.15067 21.7618 4.80387 21.4426C4.4571 21.1235 4.43473 20.5836 4.75386 20.2368L7.58812 17.1567C7.82916 16.8948 8.03856 16.6665 8.22236 16.492C8.40892 16.3149 8.62215 16.1403 8.88823 16.0236C9.5765 15.7218 10.3701 15.7841 11.0029 16.1896C11.2475 16.3464 11.431 16.5521 11.5876 16.7562C11.6943 16.8951 11.8088 17.0615 11.9346 17.2487C12.0605 17.0612 12.1751 16.8946 12.2819 16.7555C12.4385 16.5514 12.622 16.3458 12.8666 16.189C13.499 15.7837 14.2921 15.7212 14.9801 16.0225C15.2462 16.139 15.4596 16.3135 15.6463 16.4905C15.8302 16.6649 16.0397 16.8932 16.2809 17.155L19.2461 20.3744C19.5654 20.721 19.5431 21.2609 19.1964 21.5802C18.8497 21.8995 18.3098 21.8774 17.9905 21.5307L15.0255 18.3113C14.7683 18.032 14.6039 17.8543 14.4717 17.7289C14.3439 17.6077 14.2982 17.5872 14.2955 17.586C14.1302 17.5136 13.9394 17.5286 13.7875 17.626C13.7851 17.6275 13.7432 17.6547 13.6357 17.7947C13.5248 17.9393 13.3904 18.1406 13.1801 18.4567L12.9597 18.7882L13.9385 20.259C15.0031 21.8589 13.8561 24 11.9344 24ZM11.9344 22.2931C12.4935 22.2931 12.8273 21.6702 12.5176 21.2047L11.9346 20.3284L11.3514 21.2047C11.0416 21.6702 11.3753 22.293 11.9344 22.2931Z" fill="#66765B"/>
<path d="M24 12.0656C24 13.9873 21.8589 15.1343 20.259 14.0697L18.788 13.0905L18.4574 13.3106C18.1413 13.5209 17.9401 13.6554 17.7956 13.7664C17.654 13.8751 17.6276 13.9166 17.6267 13.9181C17.5292 14.0702 17.5142 14.2609 17.5867 14.4263C17.5875 14.4281 17.6072 14.4733 17.7299 14.6025C17.8554 14.7347 18.0331 14.899 18.3124 15.156L21.3926 17.9902C21.7394 18.3094 21.7618 18.8493 21.4426 19.1961C21.1235 19.5429 20.5836 19.5653 20.2368 19.2461L17.1567 16.4119C16.8948 16.1708 16.6665 15.9614 16.492 15.7776C16.3149 15.5911 16.1403 15.3779 16.0236 15.1118C15.7218 14.4235 15.7841 13.6299 16.1896 12.9971C16.3464 12.7525 16.5521 12.569 16.7562 12.4124C16.8951 12.3057 17.0615 12.1912 17.2487 12.0654C17.0612 11.9395 16.8946 11.8249 16.7555 11.7181C16.5514 11.5615 16.3458 11.378 16.189 11.1334C15.7837 10.501 15.7212 9.70794 16.0224 9.01993C16.139 8.75375 16.3135 8.54039 16.4905 8.35371C16.6649 8.16982 16.8932 7.96031 17.155 7.71914L20.3744 4.75392C20.721 4.43461 21.2609 4.4569 21.5802 4.80358C21.8995 5.15027 21.8774 5.69016 21.5307 6.00947L18.3113 8.97452C18.032 9.2317 17.8543 9.39606 17.7289 9.5283C17.6077 9.65609 17.5872 9.70178 17.586 9.70451C17.5136 9.86985 17.5286 10.0606 17.626 10.2125C17.6275 10.2149 17.6547 10.2568 17.7947 10.3643C17.9393 10.4752 18.1406 10.6096 18.4567 10.8199L18.7882 11.0403L20.259 10.0615C21.8589 8.99688 24 10.1439 24 12.0656ZM22.2931 12.0656C22.2931 11.5065 21.6702 11.1727 21.2047 11.4824L20.3284 12.0654L21.2047 12.6486C21.6702 12.9584 22.293 12.6247 22.2931 12.0656Z" fill="#66765B"/>
<path d="M0 11.9344C3.99861e-05 10.0127 2.14111 8.8657 3.74096 9.93032L5.21201 10.9095L5.54265 10.6894C5.85866 10.4791 6.05985 10.3446 6.20444 10.2336C6.34599 10.1249 6.37236 10.0834 6.37333 10.0819C6.47078 9.92981 6.48584 9.73906 6.4133 9.57366C6.41254 9.57192 6.39281 9.52671 6.27009 9.39746C6.1446 9.26528 5.96686 9.10102 5.68756 8.84401L2.60737 6.00975C2.2606 5.6906 2.23823 5.15068 2.55736 4.80387C2.87652 4.4571 3.41644 4.43473 3.76325 4.75386L6.84327 7.58812C7.10522 7.82916 7.33345 8.03856 7.50795 8.22236C7.68508 8.40892 7.85967 8.62215 7.97636 8.88823C8.27819 9.5765 8.21588 10.3701 7.81036 11.0029C7.65357 11.2475 7.44788 11.431 7.24381 11.5876C7.10486 11.6943 6.9385 11.8088 6.75125 11.9346C6.93876 12.0605 7.10538 12.1751 7.24449 12.2819C7.44859 12.4385 7.65425 12.622 7.81104 12.8666C8.21629 13.499 8.27883 14.2921 7.97755 14.9801C7.86099 15.2463 7.68654 15.4596 7.50948 15.6463C7.33505 15.8302 7.10682 16.0397 6.84497 16.2809L3.62565 19.2461C3.27896 19.5654 2.73907 19.5431 2.41976 19.1964C2.10046 18.8497 2.12257 18.3098 2.46926 17.9905L5.68875 15.0255C5.96798 14.7683 6.14568 14.6039 6.27111 14.4717C6.39232 14.3439 6.41278 14.2982 6.41398 14.2955C6.48638 14.1302 6.4714 13.9394 6.37401 13.7875C6.37249 13.7851 6.34526 13.7432 6.20529 13.6357C6.0607 13.5248 5.85937 13.3904 5.54333 13.1801L5.21184 12.9597L3.74096 13.9385C2.1411 15.0031 -2.52003e-07 13.8561 0 11.9344ZM1.70695 11.9344C1.70695 12.4935 2.32981 12.8273 2.79531 12.5176L3.67157 11.9346L2.79531 11.3514C2.32982 11.0416 1.70699 11.3753 1.70695 11.9344Z" fill="#66765B"/>
<path fill-rule="evenodd" clip-rule="evenodd" d="M42.2233 8.53C43.4989 8.53 44.5916 8.97219 45.5101 9.83546L45.5985 9.92031L45.5995 9.92137C46.5193 10.8418 46.9902 11.9826 46.9902 13.265C46.9902 14.5652 46.5191 15.6885 45.5995 16.6086L45.5985 16.6097C44.6619 17.5288 43.54 18 42.2233 18C40.9075 18 39.7672 17.5295 38.8469 16.6086C37.9087 15.6873 37.4565 14.5632 37.4565 13.265C37.4565 11.9845 37.9084 10.843 38.8469 9.92137C39.7672 9.00051 40.9075 8.53 42.2233 8.53ZM42.2233 10.2355C41.361 10.2355 40.652 10.5316 40.037 11.1297L40.0372 11.1299C39.4395 11.728 39.1435 12.4369 39.1435 13.265C39.1435 14.1101 39.4391 14.8018 40.0372 15.4002C40.6505 16.014 41.3582 16.2945 42.2233 16.2945C43.0874 16.2945 43.778 16.0146 44.392 15.4002C44.99 14.8018 45.2856 14.1101 45.2856 13.265C45.2856 12.4199 44.99 11.7284 44.392 11.1299C43.7763 10.5312 43.0847 10.2355 42.2233 10.2355Z" fill="#FAFAFA" fill-opacity="0.95"/>
<path d="M50.4671 15.0273C50.4671 15.4292 50.5779 15.7159 50.8029 15.9411C51.0492 16.1875 51.3205 16.2945 51.6811 16.2945C52.7412 16.2945 53.732 15.8142 54.6563 14.8566V10.5147H53.7039C53.4267 10.5147 53.186 10.46 53.0033 10.2822C52.8295 10.13 52.7209 9.91121 52.7209 9.65318C52.7209 9.41024 52.8313 9.19209 53.0033 9.04153C53.1788 8.88782 53.412 8.80919 53.7039 8.80919H56.3609V15.9979H56.546C56.8271 15.9979 57.065 16.0539 57.2465 16.2128L57.2506 16.2164L57.2545 16.2203C57.4177 16.3836 57.529 16.5976 57.5291 16.8419C57.5291 17.0778 57.4413 17.2978 57.2476 17.4702L57.2465 17.4711C57.065 17.63 56.8271 17.686 56.546 17.686H54.6563V17.0573C53.7429 17.6838 52.7532 18 51.7161 18C50.8462 18 50.1541 17.7452 49.6627 17.2346L49.6615 17.2332C49.0772 16.612 48.7627 15.8748 48.7627 15.0273V10.5147H48.1937C47.9166 10.5147 47.6759 10.4601 47.4932 10.2824L47.4604 10.2519C47.3018 10.0957 47.2282 9.88514 47.2282 9.65318C47.2282 9.41432 47.3177 9.21661 47.4852 9.04899L47.4891 9.04508L47.4932 9.04153C47.6688 8.88783 47.9018 8.80921 48.1937 8.80919H50.4671V15.0273Z" fill="#FAFAFA" fill-opacity="0.95"/>
<path fill-rule="evenodd" clip-rule="evenodd" d="M74.8118 8.53C75.8529 8.53 76.7107 8.79936 77.3363 9.32215L77.3961 9.37345L77.3962 9.3738C78.0339 9.939 78.3755 10.6092 78.3755 11.3458V15.9979H78.927C79.2238 15.9979 79.4625 16.0532 79.6448 16.2128L79.6489 16.2164L79.6528 16.2203C79.8235 16.3911 79.91 16.6074 79.91 16.8419C79.91 17.0742 79.8246 17.2963 79.6448 17.4537C79.4613 17.6321 79.2196 17.686 78.927 17.686H76.6535V17.0286C75.675 17.6644 74.6317 18 73.539 18C72.517 18 71.6713 17.7306 71.0576 17.1723C70.4297 16.617 70.1323 15.9092 70.1323 15.1145C70.1323 14.2204 70.544 13.4259 71.3258 12.7891L71.326 12.789C72.2993 11.9988 73.799 11.7046 75.8218 11.9331C76.0843 11.9481 76.368 11.9864 76.6535 12.038V11.3458C76.6535 11.0764 76.5302 10.8411 76.2459 10.6198L76.241 10.6159C75.9533 10.3735 75.4597 10.2355 74.7769 10.2355C74.2284 10.2356 73.429 10.4032 72.3874 10.7506L72.3848 10.7515L72.3819 10.7524C72.0877 10.839 71.9616 10.8637 71.8651 10.8637C71.6429 10.8637 71.4412 10.7731 71.2886 10.5985C71.1381 10.4435 71.0564 10.2296 71.0564 10.0021C71.0564 9.72672 71.1647 9.54691 71.2787 9.43291C71.4008 9.31066 71.6174 9.18016 72.5199 8.93699L72.5208 8.93663C73.5154 8.67473 74.2657 8.53 74.8118 8.53ZM74.7072 13.5508C73.6827 13.5508 72.886 13.7728 72.3491 14.1789L72.3493 14.1791C71.976 14.4715 71.8193 14.7595 71.8193 15.1145C71.8193 15.4273 71.9508 15.6988 72.2173 15.9342C72.4715 16.1585 72.8958 16.2945 73.504 16.2945C74.0923 16.2945 74.6606 16.1767 75.1595 15.9441C75.6332 15.7152 76.1416 15.3737 76.6535 14.8871V13.7432C76.4187 13.6898 76.1727 13.6485 75.9261 13.6195L75.9242 13.6191C75.5324 13.568 75.1388 13.5508 74.7072 13.5508Z" fill="#FAFAFA" fill-opacity="0.95"/>
<path fill-rule="evenodd" clip-rule="evenodd" d="M95.2158 8.53C96.5807 8.53 97.7574 8.99847 98.6454 9.90504C99.5507 10.8291 100.001 12.0068 99.9826 13.4416V13.8997H92.2314C92.3888 14.4993 92.6874 15.0007 93.1289 15.4073L93.2291 15.4957L93.2304 15.4968C93.8424 16.0265 94.5877 16.2945 95.5297 16.2945C96.0521 16.2945 96.611 16.2101 97.1898 16.0399C97.7731 15.851 98.2394 15.632 98.5829 15.3537L98.5847 15.3523L98.5867 15.3509C98.7918 15.1945 99.007 15.1149 99.2176 15.1234C99.4282 15.1318 99.6139 15.2274 99.7604 15.3827C99.9143 15.5367 100 15.7534 100 15.9695C100 16.1226 99.9557 16.3782 99.7254 16.6086C99.3697 16.9645 98.8036 17.2886 97.9905 17.5717L97.9907 17.5719C97.1888 17.8572 96.3682 18 95.5297 18C94.0773 18 92.8676 17.514 91.894 16.5584L91.8041 16.4696C90.8897 15.5458 90.4315 14.4003 90.4315 13.0905C90.4315 11.8424 90.8853 10.7527 91.8069 9.8667C92.7281 8.98113 93.8678 8.53 95.2158 8.53ZM95.2158 10.2355C94.4144 10.2355 93.7532 10.4681 93.1731 10.9326L93.1726 10.9329C92.7523 11.2664 92.4596 11.6893 92.2825 12.1942H98.1484C97.9692 11.6958 97.664 11.2829 97.2391 10.931C96.6776 10.4683 96.0175 10.2355 95.2158 10.2355Z" fill="#FAFAFA" fill-opacity="0.95"/>
<path d="M31.0929 6C31.3849 6 31.6178 6.07865 31.7934 6.23234C31.9732 6.38973 32.0586 6.61167 32.0586 6.84398C32.0586 7.0914 31.9747 7.31445 31.7934 7.4732C31.637 7.61007 31.4351 7.68706 31.1866 7.70234L33.2011 10.7338L35.1707 7.70181C34.927 7.68486 34.7151 7.60904 34.56 7.4732C34.3787 7.31445 34.2948 7.0914 34.2948 6.84398C34.2948 6.61167 34.3802 6.38973 34.56 6.23234C34.7375 6.07692 34.9892 6 35.2778 6H37.3877C37.6796 6 37.9126 6.07864 38.0882 6.23234C38.262 6.38452 38.3707 6.60348 38.3707 6.86155C38.3707 7.10448 38.2601 7.32265 38.0882 7.4732C37.9126 7.62689 37.6796 7.70553 37.3877 7.70554H37.18L34.0638 12.5107V15.9805H35.5918C35.8552 15.9805 36.0807 16.0297 36.2575 16.1668L36.2922 16.1954L36.2931 16.1961C36.4869 16.3685 36.5746 16.5885 36.5746 16.8245C36.5746 17.059 36.4883 17.2754 36.3176 17.4462L36.3137 17.4499L36.3096 17.4537C36.1321 17.6091 35.8803 17.686 35.5918 17.686H30.8139C30.522 17.686 30.289 17.6074 30.1135 17.4537L30.1094 17.4499L30.1055 17.4462C29.9423 17.2829 29.8309 17.0687 29.8309 16.8245C29.8309 16.5847 29.9386 16.3692 30.1067 16.2188C30.2766 16.0322 30.5264 15.9805 30.8139 15.9805H32.3592V12.5114L29.1742 7.70554H28.9656C28.6737 7.70554 28.4407 7.62689 28.2652 7.4732C28.0839 7.31445 28 7.0914 28 6.84398C28 6.61167 28.0854 6.38973 28.2652 6.23234C28.4407 6.07864 28.6737 6 28.9656 6H31.0929Z" fill="#FAFAFA" fill-opacity="0.95"/>
<path d="M62.0356 6C62.3433 6.00001 62.5769 6.07775 62.7535 6.23234C62.9348 6.39109 63.0185 6.61414 63.0185 6.86155C63.0185 7.09385 62.9332 7.31582 62.7535 7.4732C62.5769 7.62777 62.3433 7.70552 62.0356 7.70554H60.7539L61.4579 13.9113L62.9924 8.39031H63.9362V8.44444H63.971V8.39031H64.879L66.4632 13.9389L67.1539 7.70554H65.8542C65.5623 7.70553 65.3293 7.62689 65.1538 7.4732C64.974 7.31582 64.8888 7.09385 64.8887 6.86155C64.8887 6.61414 64.9724 6.39109 65.1538 6.23234C65.3293 6.07864 65.5623 6 65.8542 6H68.7139C69.0058 6 69.2388 6.07864 69.4144 6.23234C69.5863 6.3829 69.6969 6.60104 69.6969 6.84398C69.6969 7.10206 69.5882 7.32102 69.4144 7.4732C69.2657 7.60337 69.0757 7.67936 68.8437 7.69968L67.7621 17.6686H65.7833L63.9549 11.2815L62.1594 17.6686H60.1811L59.0293 7.69808C58.8048 7.6756 58.6204 7.60024 58.4753 7.4732C58.2956 7.31582 58.2103 7.09385 58.2103 6.86155C58.2103 6.61415 58.294 6.39109 58.4753 6.23234C58.6509 6.07862 58.884 6 59.1759 6H62.0356Z" fill="#FAFAFA" fill-opacity="0.95"/>
<path d="M88.0353 8.59993C88.5362 8.61752 89.0023 8.78403 89.431 9.09372L89.5161 9.15761L89.5179 9.15886L89.5196 9.16045C89.7675 9.36419 89.9538 9.54416 90.0789 9.71264C90.2049 9.88238 90.2769 10.0513 90.2769 10.229C90.2769 10.4623 90.1916 10.6747 90.0447 10.8427L90.041 10.8468L90.0372 10.8507C89.7791 11.109 89.3545 11.1751 89.0464 11.0209L89.0374 11.0163L89.0288 11.0106C88.9662 10.9689 88.8893 10.91 88.6957 10.7339L88.6906 10.7293L88.6858 10.7242C88.4653 10.4866 88.3281 10.4025 88.2741 10.3809L88.2636 10.3766L88.2537 10.371C88.1637 10.3195 88.0721 10.3053 87.986 10.3053C87.7499 10.3053 87.4313 10.4105 87.0023 10.6509C86.5914 10.8811 85.8386 11.4805 84.7668 12.4315V15.9805H87.7246C87.985 15.9805 88.2272 16.0284 88.4073 16.1665L88.4424 16.1954L88.4465 16.199L88.4504 16.2029C88.6211 16.3737 88.7076 16.59 88.7076 16.8245C88.7076 17.0568 88.6222 17.2787 88.4424 17.4361C88.2589 17.6145 88.0172 17.6686 87.7246 17.6686H81.6739C81.3929 17.6686 81.1549 17.6126 80.9734 17.4537C80.7937 17.2963 80.7084 17.0742 80.7084 16.8419C80.7084 16.6096 80.7937 16.3876 80.9734 16.2302C81.1381 16.071 81.3934 15.9979 81.6739 15.9979H83.0798V10.4973H82.1099C81.8327 10.4973 81.5921 10.4425 81.4094 10.2648L81.3764 10.2343C81.2179 10.0781 81.1442 9.86767 81.1442 9.63578C81.1442 9.39691 81.2339 9.19922 81.4014 9.03159C81.5658 8.86707 81.8249 8.79162 82.1099 8.79162H84.7668V10.1881C85.4238 9.63451 85.9425 9.26133 86.3566 9.03816L86.3584 9.0371C86.9432 8.73103 87.5031 8.58126 88.0353 8.59993Z" fill="#FAFAFA" fill-opacity="0.95"/>
</svg>
